<?xml version="1.0" encoding="UTF-8"?>
<!-- Generator: visioncortex VTracer 0.6.3 -->
<svg version="1.1" xmlns="http://www.w3.org/2000/svg" width="1280" height="1280">
<path d="M0 0 C422.4 0 844.8 0 1280 0 C1280 422.4 1280 844.8 1280 1280 C857.6 1280 435.2 1280 0 1280 C0 857.6 0 435.2 0 0 Z " fill="#251731" transform="translate(0,0)"/>
<path d="M0 0 C1.32 0.33 2.64 0.66 4 1 C6.13 7.93 6.27 14.34 6.19 21.56 C6.18 22.76 6.17 23.96 6.16 25.2 C6.12 28.8 6.06 32.4 6 36 C5.99 37.44 5.99 37.44 5.97 38.9 C5.53 80.74 -2.86 126.01 -19.96 164.26 C-21.07 167.17 -21.54 169.93 -22 173 C-22.63 174.35 -23.3 175.68 -24 177 C-24.35 178.33 -24.69 179.66 -25 181 C-11.11 151.03 -1.52 120.58 4 88 C4.12 87.29 4.24 86.59 4.37 85.86 C7.79 65.5 8.17 44.53 8.66 23.92 C8.84 16.58 9.21 9.31 10 2 C17.36 0.94 24.16 0.58 31 4 C32.58 4.03 34.17 4.05 35.75 4.06 C38.74 4.35 40.48 4.59 42.85 6.46 C50.66 16.29 52.98 29.61 53.66 41.81 C53.77 42.53 53.88 43.26 54 44 C55.91 45.22 55.91 45.22 57.76 44.57 C58.47 44.31 59.17 44.05 59.9 43.78 C60.7 43.49 61.5 43.2 62.32 42.9 C63.18 42.59 64.05 42.27 64.94 41.94 C66.78 41.28 68.62 40.62 70.46 39.96 C71.86 39.47 71.86 39.47 73.28 38.96 C101.58 28.99 133.71 18.34 164 19 C164.66 19.33 165.32 19.66 166 20 C166.33 19.34 166.66 18.68 167 18 C170.3 18 173.6 18 177 18 C173.87 19.56 171.58 20.48 168.27 21.3 C167.34 21.53 166.4 21.76 165.44 22 C163.92 22.37 163.92 22.37 162.38 22.75 C160.77 23.15 160.77 23.15 159.14 23.55 C151.71 25.37 144.27 27.11 136.81 28.81 C113.42 34.17 89.99 39.55 66.99 46.41 C62.68 47.68 58.34 48.84 54 50 C54 51.98 54 53.96 54 56 C54.98 55.65 54.98 55.65 55.97 55.3 C81.73 46.24 108 40.08 134.6 34.08 C147.78 31.1 160.89 27.83 173.99 24.51 C176.04 23.99 178.09 23.48 180.14 22.97 C182.67 22.33 185.19 21.69 187.71 21.04 C188.85 20.75 189.99 20.47 191.16 20.17 C192.15 19.92 193.14 19.67 194.15 19.41 C200.3 18.53 205.64 20.69 210.94 23.62 C218.08 31.85 217.45 40.7 217 51 C208.54 54.77 199.72 57.25 190.84 59.8 C188.13 60.58 185.42 61.36 182.72 62.15 C178.98 63.24 175.24 64.32 171.5 65.41 C128.7 77.6 128.7 77.6 87 93 C79.53 96 79.53 96 76 96 C76.99 104.41 76.99 104.41 78 113 C82.3 114.43 85.09 112.54 89.04 110.81 C89.84 110.47 90.65 110.12 91.47 109.77 C94.05 108.67 96.62 107.55 99.19 106.44 C102.53 104.99 105.88 103.56 109.23 102.12 C110.05 101.77 110.88 101.42 111.72 101.05 C129.55 93.47 147.82 87.79 166.5 82.75 C167.16 82.57 167.81 82.39 168.49 82.21 C182.26 78.47 198.57 74.28 212 81 C212.99 81.66 213.98 82.32 215 83 C215.28 82.11 215.28 82.11 215.56 81.2 C218.32 73.31 222.29 65.3 229.79 60.96 C234.19 58.87 238.77 57.34 243.4 55.85 C246.03 54.99 248.63 54.06 251.24 53.11 C275.27 44.54 300.37 39.18 325.24 33.67 C337.82 30.87 350.32 27.72 362.81 24.55 C365.56 23.86 368.31 23.17 371.06 22.49 C372.95 22.01 374.84 21.52 376.73 21.03 C378.44 20.6 378.44 20.6 380.18 20.17 C381.66 19.79 381.66 19.79 383.16 19.4 C389.35 18.52 394.78 20.66 400 23.81 C405.57 29.91 406.14 36.38 406.06 44.31 C406.05 45.57 406.04 46.82 406.04 48.11 C406.02 49.54 406.02 49.54 406 51 C398.52 54.19 390.96 56.59 383.14 58.79 C381.26 59.33 379.38 59.87 377.51 60.4 C374.89 61.15 372.27 61.89 369.65 62.63 C330.47 73.59 330.47 73.59 292 86.75 C290.81 87.19 289.62 87.63 288.39 88.09 C280.57 91 272.78 93.99 265 97 C265.07 97.86 265.13 98.73 265.2 99.61 C265.36 101.67 265.52 103.73 265.68 105.79 C265.99 108.89 266.45 111.93 267 115 C280.51 109.75 280.51 109.75 293.75 103.88 C300.19 100.83 306.77 98.36 313.47 95.94 C315.45 95.2 317.42 94.44 319.39 93.66 C329.1 89.86 338.9 86.92 349 84.33 C351.53 83.68 354.05 83.02 356.57 82.35 C358.2 81.92 359.84 81.5 361.47 81.07 C362.21 80.88 362.95 80.68 363.71 80.48 C370.97 78.63 378.05 77.85 385.56 77.81 C386.8 77.8 388.04 77.78 389.32 77.77 C393.88 78.06 398.15 78.53 401.82 81.45 C402.47 82.28 402.47 82.28 403.12 83.12 C403.85 84.06 403.85 84.06 404.6 85.01 C406.44 87.62 408.15 90.29 409.77 93.05 C410.94 95.01 410.94 95.01 412.42 96.64 C416.29 101.12 416.87 105.19 416.61 111.05 C415.59 115.96 413 119.07 409 122 C403.71 124.67 398.63 125.82 392.81 126.81 C390.93 127.16 389.05 127.5 387.18 127.85 C385.68 128.13 385.68 128.13 384.15 128.41 C350.2 134.76 307.77 143.16 278.83 163.2 C276 165 276 165 272 165 C272.66 172.92 273.32 180.84 274 189 C278.92 189 280.35 188.6 284.54 186.5 C293.6 182.16 302.95 178.62 312.31 175 C314.09 174.31 315.87 173.61 317.65 172.92 C341.94 163.48 366.34 154.24 391.19 146.38 C392.24 146.03 393.3 145.69 394.39 145.34 C401.84 143.03 408.23 141.74 415.75 144.25 C425.91 149.72 430.59 158.68 433.88 169.38 C436 176.48 437.31 183.22 437.62 190.62 C437.7 191.37 437.77 192.11 437.84 192.88 C438.05 199.43 435.41 203.77 431.12 208.59 C425.5 212.93 419.13 213.96 412.25 215.22 C408.75 215.86 405.26 216.6 401.77 217.33 C400.01 217.7 398.24 218.07 396.48 218.42 C367.36 224.38 339 234.69 311.56 245.96 C308.37 247.25 305.16 248.48 301.94 249.69 C297.87 251.23 293.9 252.91 289.93 254.68 C264.88 265.86 264.88 265.86 253.62 262.23 C251.07 260.81 249.06 259.06 247 257 C246.54 255.12 246.54 255.12 246.19 253 C245.75 250.86 245.75 250.86 245 249 C242.64 247.74 242.64 247.74 240 247 C236.44 243.24 234.12 239.56 233.88 234.31 C233.96 232.41 234.04 230.52 234.12 228.62 C233.94 223.33 232.95 218.2 232 213 C186.82 221.79 142.93 236.17 100.94 255 C90.16 259.77 76.42 265.79 64.48 262.25 C59.56 259.62 57.99 256.35 56.13 251.25 C54.78 248.56 53.27 247.41 50.88 245.62 C46.66 242.24 45.86 239.3 45.16 234.04 C45.03 231.63 45.01 229.28 45.05 226.87 C45.07 221.35 44.41 215.97 43.75 210.5 C42.43 199.07 41.22 187.63 40.08 176.18 C39.9 174.37 39.72 172.55 39.54 170.74 C37.73 152.91 37.73 152.91 38 144 C37.34 144 36.68 144 36 144 C35.61 145.26 35.22 146.52 34.81 147.81 C33.29 152.4 31.35 156.7 29.3 161.08 C27.99 164.02 26.86 166.98 25.75 170 C17.87 190.67 7.63 209.24 -8 225 C-8.97 226.02 -9.94 227.03 -10.9 228.05 C-21.47 239.07 -34.14 251.66 -50.12 252.75 C-55.42 252.44 -58.97 251.23 -62.98 247.73 C-66.15 243.44 -67.83 238.63 -69.44 233.57 C-71.31 227.9 -73.61 225.04 -78 221 C-79.08 217.77 -79.25 215.14 -79.43 211.73 C-79.54 209.83 -79.54 209.83 -79.65 207.89 C-79.68 207.21 -79.72 206.54 -79.76 205.85 C-80.55 191.79 -81.88 177.92 -84 164 C-84.23 162.48 -84.45 160.97 -84.68 159.45 C-89.35 128.05 -95.29 96.95 -101.94 65.9 C-102.23 64.54 -102.52 63.17 -102.81 61.8 C-103.34 59.35 -103.87 56.91 -104.41 54.46 C-104.64 53.4 -104.87 52.34 -105.1 51.25 C-105.3 50.35 -105.5 49.45 -105.71 48.52 C-106.12 44.98 -105.59 42.18 -104 39 C-104.28 37.39 -104.63 35.78 -105 34.19 C-106.39 26.96 -107.26 17.94 -103.25 11.38 C-99.33 7.24 -95.74 5.21 -90 5 C-79.08 6.57 -73.34 11.72 -66.81 20.25 C-60.1 29.35 -56.94 39.7 -54.31 50.56 C-54.07 51.56 -54.07 51.56 -53.82 52.58 C-45.6 86.15 -39.61 120.27 -33.78 154.32 C-33.6 155.36 -33.42 156.41 -33.23 157.49 C-32.9 159.45 -32.56 161.42 -32.23 163.39 C-32.08 164.25 -31.93 165.11 -31.78 166 C-31.65 166.75 -31.53 167.5 -31.39 168.28 C-31.16 170.02 -31.16 170.02 -30 171 C-16.31 131.63 -7.46 92.64 -4 51 C-3.93 50.23 -3.87 49.45 -3.8 48.65 C-3.19 41.46 -2.96 34.25 -2.79 27.04 C-2.75 25.57 -2.72 24.11 -2.68 22.64 C-2.6 19.7 -2.54 16.77 -2.48 13.83 C-2.45 12.46 -2.41 11.1 -2.38 9.73 C-2.34 7.9 -2.34 7.9 -2.3 6.02 C-2 3 -2 3 0 0 Z " fill="#FBFCFE" transform="translate(733,495)"/>
<path d="M0 0 C1.29 1.08 2.57 2.17 3.82 3.3 C6.91 6.08 9.39 8.12 13.38 9.44 C17.35 10.75 19.5 12.66 22.25 15.88 C22.97 16.64 23.69 17.4 24.44 18.19 C28.52 24.24 28.71 31.97 29.32 39.06 C29.41 40.01 29.49 40.95 29.58 41.92 C29.85 44.9 30.11 47.89 30.38 50.88 C30.56 52.91 30.74 54.95 30.93 56.98 C31.37 61.94 31.81 66.91 32.25 71.88 C32.91 71.88 33.57 71.88 34.25 71.88 C33.92 70.88 33.59 69.89 33.25 68.88 C33.02 64.73 33.06 60.59 33.06 56.44 C33.05 55.29 33.04 54.15 33.03 52.97 C33.02 51.87 33.02 50.76 33.02 49.63 C33.02 48.62 33.01 47.61 33.01 46.58 C33.25 43.84 33.85 42.21 35.25 39.88 C35.53 42.83 35.8 45.79 36.06 48.75 C36.15 49.73 36.24 50.7 36.33 51.71 C36.96 58.99 37.49 66.28 37.98 73.58 C38.04 74.51 38.11 75.45 38.17 76.41 C38.69 84.09 38.69 84.09 38.93 87.86 C39.1 90.57 39.29 93.29 39.47 96.01 C39.54 97.24 39.54 97.24 39.62 98.49 C39.91 102.62 40.26 106.16 42.25 109.88 C44.14 110.87 44.14 110.87 46.38 111.25 C52.83 113.13 57.24 116.68 60.82 122.38 C64.17 128.81 65.86 134.56 65.25 141.88 C60.95 154.25 60.95 154.25 56.06 157.19 C53.86 158.85 53.86 158.85 54 162.28 C54.13 167.67 55.26 172.84 56.37 178.1 C56.58 179.17 56.8 180.23 57.03 181.33 C57.72 184.72 58.42 188.11 59.12 191.5 C66.62 227.77 66.62 227.77 66.56 240.88 C66.58 241.67 66.59 242.46 66.61 243.28 C66.62 249.41 65.4 253.66 61 258.19 C57.41 260.39 55.5 261.01 51.25 260.88 C42.53 257.12 37.3 251.67 33.34 243.17 C32.23 240.82 31.03 238.53 29.83 236.23 C27.34 231.25 25.56 226.27 24 220.94 C23.57 219.51 23.57 219.51 23.14 218.05 C19.93 207.12 17.14 196.08 14.36 185.03 C14.17 184.3 13.99 183.57 13.8 182.82 C13.3 180.84 12.8 178.85 12.31 176.86 C11.06 172.17 9.64 167.52 8.25 162.88 C-0.99 162.88 -10.23 162.88 -19.75 162.88 C-20.08 165.51 -20.41 168.15 -20.75 170.88 C-21.23 173.5 -21.74 176.11 -22.27 178.72 C-22.57 180.22 -22.87 181.72 -23.17 183.22 C-23.33 183.99 -23.49 184.76 -23.65 185.55 C-26.17 198.11 -28.57 210.57 -29.69 223.35 C-29.77 224.19 -29.86 225.04 -29.95 225.91 C-30.04 227 -30.04 227 -30.13 228.11 C-30.75 229.88 -30.75 229.88 -32.8 231.12 C-33.44 231.37 -34.09 231.62 -34.75 231.88 C-35.74 231.22 -36.73 230.56 -37.75 229.88 C-37.09 223.61 -36.43 217.34 -35.75 210.88 C-36.41 210.88 -37.07 210.88 -37.75 210.88 C-37.91 212.69 -37.91 212.69 -38.08 214.54 C-40.93 244.63 -40.93 244.63 -51.31 254.25 C-56.63 257.8 -61.43 258.85 -67.75 257.88 C-74.29 255.58 -79.37 252.23 -83.75 246.88 C-88.63 235.01 -85.28 220.71 -83.12 208.5 C-82.86 206.93 -82.59 205.35 -82.32 203.78 C-80.04 190.67 -77.15 177.74 -73.75 164.88 C-75.74 164.68 -77.72 164.48 -79.71 164.29 C-81.75 163.88 -81.75 163.88 -84.75 161.88 C-84.75 161.22 -84.75 160.56 -84.75 159.88 C-85.62 159.67 -86.48 159.46 -87.38 159.25 C-92.26 157.26 -95.54 154.3 -97.91 149.56 C-98.87 146.49 -98.98 143.96 -98.94 140.75 C-98.93 139.72 -98.92 138.68 -98.92 137.62 C-98.75 134.88 -98.75 134.88 -97.75 131.88 C-98.8 131.79 -99.86 131.7 -100.94 131.62 C-104.88 131.3 -108.81 130.97 -112.75 130.65 C-114.44 130.51 -116.14 130.37 -117.84 130.23 C-120.29 130.03 -122.74 129.83 -125.19 129.63 C-125.94 129.57 -126.69 129.51 -127.47 129.45 C-131.93 129.07 -136.33 128.55 -140.75 127.88 C-137.96 133.99 -134.68 139.66 -131.06 145.31 C-125.85 153.5 -121.31 161.97 -116.91 170.62 C-115.85 172.68 -114.78 174.72 -113.7 176.76 C-89.53 222.83 -89.53 222.83 -95.46 244.46 C-97.24 247.79 -98.38 249.05 -101.75 250.88 C-105.8 251.34 -109.75 251.16 -113.81 250.94 C-114.9 250.91 -115.99 250.89 -117.11 250.87 C-124.9 250.52 -124.9 250.52 -128.2 248.03 C-130.55 243.24 -132.53 238.36 -134.44 233.38 C-135.33 231.1 -136.22 228.82 -137.11 226.55 C-137.56 225.42 -138 224.29 -138.46 223.12 C-140.27 218.57 -142.18 214.06 -144.12 209.56 C-144.48 208.73 -144.84 207.91 -145.21 207.05 C-145.97 205.3 -146.73 203.54 -147.49 201.79 C-149.44 197.28 -151.37 192.76 -153.3 188.25 C-154.85 184.62 -156.41 180.99 -157.97 177.36 C-159.56 173.65 -161.15 169.93 -162.72 166.2 C-166.8 156.56 -171.42 147.19 -176.55 138.05 C-177.75 135.88 -177.75 135.88 -178.8 133.57 C-179.94 131.3 -180.92 129.64 -182.75 127.88 C-186.22 126.79 -189.51 126.84 -193.12 126.94 C-194.97 126.93 -196.81 126.92 -198.65 126.91 C-199.52 126.91 -200.39 126.92 -201.28 126.92 C-204.52 126.86 -207.57 126.43 -210.75 125.88 C-210.67 126.53 -210.6 127.19 -210.52 127.87 C-207.02 159.1 -204.63 190.62 -204.22 222.06 C-204.2 223.58 -204.17 225.11 -204.13 226.63 C-203.93 234.26 -203.8 240.48 -209.18 246.43 C-212.84 249.8 -215.69 252.07 -220.75 252.38 C-224.96 252.15 -227.54 250.63 -230.75 247.88 C-231.42 246.54 -232.08 245.21 -232.75 243.88 C-233.74 243.34 -234.73 242.8 -235.75 242.25 C-240.09 238.81 -240.03 235.19 -240.75 229.88 C-240.99 227.26 -241.14 224.66 -241.28 222.04 C-242.35 201.72 -245.98 181.69 -249.3 161.64 C-249.74 158.96 -250.17 156.28 -250.6 153.6 C-251.24 149.59 -251.9 145.59 -252.57 141.58 C-252.81 140.13 -253.05 138.67 -253.28 137.21 C-253.61 135.21 -253.95 133.21 -254.29 131.22 C-254.48 130.11 -254.66 129 -254.86 127.85 C-255.89 124.41 -257.29 122.46 -259.75 119.88 C-262.29 118.66 -262.29 118.66 -265 118.06 C-265.89 117.83 -266.78 117.6 -267.7 117.36 C-268.72 117.12 -268.72 117.12 -269.75 116.88 C-269.75 116.22 -269.75 115.56 -269.75 114.88 C-269.09 114.54 -268.43 114.22 -267.75 113.88 C-270.52 110.95 -273.62 108.77 -276.91 106.47 C-278.96 104.69 -279.84 103.43 -280.75 100.88 C-280.95 95.62 -279.97 91.09 -276.75 86.88 C-273.75 83.88 -273.75 83.88 -263.75 81.88 C-265.4 74.28 -267.05 66.69 -268.75 58.88 C-271.81 58.88 -274.09 59.4 -277.05 60.14 C-285.95 62.25 -294.96 63.65 -303.99 65.09 C-306.97 65.57 -309.95 66.05 -312.92 66.53 C-314.82 66.84 -316.71 67.14 -318.61 67.45 C-319.49 67.59 -320.38 67.74 -321.3 67.88 C-322.12 68.02 -322.94 68.15 -323.78 68.28 C-324.5 68.4 -325.22 68.51 -325.96 68.63 C-327.75 68.88 -327.75 68.88 -329.75 68.88 C-329.77 82.42 -329.79 95.97 -329.8 109.51 C-329.81 115.81 -329.81 122.1 -329.83 128.39 C-329.91 166.61 -329.91 166.61 -328.87 204.8 C-328.66 210.24 -328.55 215.68 -328.44 221.12 C-328.41 222.11 -328.39 223.09 -328.37 224.11 C-328.22 232.81 -330.58 241.49 -336.75 247.88 C-337.73 244.95 -337.81 243.43 -337.63 240.43 C-337.58 239.58 -337.53 238.73 -337.48 237.86 C-337.43 236.98 -337.37 236.1 -337.31 235.19 C-337.26 234.29 -337.21 233.4 -337.15 232.48 C-337.02 230.28 -336.89 228.08 -336.75 225.88 C-337.96 226.86 -337.96 226.86 -337.85 228.72 C-337.84 229.45 -337.82 230.18 -337.81 230.94 C-337.79 232.24 -337.77 233.54 -337.75 234.88 C-338.41 234.88 -339.07 234.88 -339.75 234.88 C-339.83 235.91 -339.92 236.94 -340 238 C-341.06 243.49 -343.25 246.48 -347.31 250.25 C-352.91 252.9 -358.37 253.02 -364.25 251.03 C-371.41 247.46 -375.43 242.81 -377.97 235.25 C-386.93 202.93 -381.71 165.15 -379.95 132.06 C-379.76 128.45 -379.58 124.83 -379.4 121.21 C-378.6 105.43 -377.77 89.65 -376.75 73.88 C-377.57 73.85 -377.57 73.85 -378.4 73.82 C-384.15 73.62 -389.89 73.41 -395.63 73.19 C-397.77 73.1 -399.9 73.03 -402.04 72.96 C-438.95 71.7 -438.95 71.7 -452.94 56.96 C-455.25 54.3 -457.38 51.55 -459.43 48.69 C-460.57 47.12 -461.81 45.61 -463.06 44.12 C-465.97 40.24 -466.15 36 -466.1 31.25 C-465.32 25.92 -462.06 22.12 -458.25 18.5 C-453.9 15.67 -450.49 14.61 -445.3 14.83 C-443.71 14.89 -443.71 14.89 -442.08 14.95 C-440.37 15.04 -440.37 15.04 -438.62 15.12 C-437.45 15.18 -436.27 15.23 -435.06 15.28 C-422.27 15.87 -409.51 16.83 -396.75 17.88 C-396.75 17.21 -396.75 16.56 -396.75 15.88 C-401.37 16.2 -405.99 16.54 -410.75 16.88 C-410.75 16.21 -410.75 15.56 -410.75 14.88 C-411.99 14.9 -413.23 14.93 -414.51 14.96 C-420.26 14.96 -425.87 14.26 -431.56 13.5 C-432.59 13.37 -433.61 13.25 -434.66 13.12 C-435.65 12.99 -436.63 12.86 -437.64 12.73 C-438.53 12.61 -439.42 12.5 -440.33 12.38 C-442.76 11.87 -444.6 11.09 -446.75 9.88 C-446.75 9.55 -446.75 9.21 -446.75 8.88 C-445.63 8.88 -444.5 8.88 -443.34 8.89 C-432.54 8.93 -421.74 8.96 -410.93 8.98 C-405.38 8.99 -399.83 9 -394.29 9.03 C-358.01 9.17 -321.94 8.33 -285.8 5.07 C-282.8 4.8 -279.8 4.54 -276.81 4.29 C-274.86 4.12 -272.92 3.95 -270.98 3.78 C-270.1 3.7 -269.22 3.63 -268.32 3.55 C-267.51 3.47 -266.7 3.4 -265.87 3.32 C-265.17 3.26 -264.46 3.2 -263.74 3.13 C-261.69 2.87 -259.76 2.38 -257.75 1.88 C-238.7 0.62 -222.82 5.49 -205.41 12.77 C-202.89 13.82 -200.35 14.82 -197.81 15.81 C-181.42 22.35 -165.72 30.57 -150.75 39.88 C-148.79 41.08 -146.83 42.28 -144.87 43.48 C-134.9 49.62 -125.05 55.82 -115.65 62.82 C-113.48 64.36 -111.43 65.63 -109.11 66.9 C-106.06 68.69 -104.31 70.1 -102.12 72.81 C-98.17 77.67 -93.87 81.85 -88.99 85.77 C-82.24 91.22 -75.29 96.88 -73.88 105.94 C-73.81 107.39 -73.81 107.39 -73.75 108.88 C-70.12 108.88 -66.49 108.88 -62.75 108.88 C-62.52 107.74 -62.29 106.6 -62.05 105.42 C-60.99 100.23 -59.88 95.05 -58.75 89.88 C-58.58 89.09 -58.41 88.3 -58.23 87.5 C-51.85 58.86 -42.84 22.56 -20.75 1.88 C-14.68 -1.94 -6.71 -2.74 0 0 Z " fill="#FBFCFE" transform="translate(577.75,494.125)"/>
<path d="M0 0 C0.99 0.5 0.99 0.5 2 1 C2.49 3.54 2.84 6 3.12 8.56 C3.21 9.25 3.3 9.95 3.39 10.66 C3.95 15.47 4.08 20.16 4 25 C3.31 24.95 2.62 24.9 1.9 24.85 C-7.03 24.49 -14.63 26.59 -23 29.38 C-24.4 29.83 -25.8 30.28 -27.19 30.73 C-44.31 36.28 -61.33 42.22 -78 49 C-79.6 49.64 -81.19 50.29 -82.79 50.93 C-83.97 51.41 -83.97 51.41 -85.18 51.89 C-92.91 55 -100.66 58.02 -108.47 60.92 C-113.44 62.77 -118.34 64.76 -123.23 66.83 C-127.46 68.61 -131.73 70.31 -136 72 C-140.1 64.38 -139.12 55.42 -139 47 C-104.55 27.94 -67.08 16.11 -28.49 8.98 C-24.99 8.34 -21.49 7.67 -18 7 C-16.75 6.76 -15.5 6.52 -14.2 6.27 C-13.06 6.03 -11.91 5.79 -10.73 5.55 C-9.24 5.24 -9.24 5.24 -7.72 4.93 C-4.53 3.84 -2.5 2.23 0 0 Z " fill="#251731" transform="translate(955,614)"/>
<path d="M0 0 C6.81 1.22 13.32 2.86 19.88 5.06 C20.77 5.36 21.67 5.67 22.6 5.98 C37.49 11.12 51.55 17.82 65 26 C66.11 26.67 67.22 27.34 68.36 28.03 C75.3 32.26 82.16 36.61 89 41 C88.5 41.99 88.5 41.99 88 43 C83.85 42.5 79.71 41.98 75.57 41.46 C74.16 41.28 72.75 41.11 71.35 40.94 C69.31 40.69 67.28 40.43 65.25 40.17 C64.03 40.02 62.81 39.86 61.55 39.71 C55.57 38.52 50.82 36.11 45.94 32.44 C40.15 28.3 35.33 26.47 28.18 26.61 C24.41 27.29 22.64 29.29 20 32 C19.34 32.66 18.68 33.32 18 34 C15.62 33.38 15.62 33.38 13 32 C11.16 27.43 10.1 22.6 8.94 17.81 C7.62 12.37 7.62 12.37 6 7 C5.01 7.33 4.02 7.66 3 8 C3 7.34 3 6.68 3 6 C2.34 6 1.68 6 1 6 C0.67 4.02 0.34 2.04 0 0 Z " fill="#251731" transform="translate(351,543)"/>
<path d="M0 0 C1.37 0.02 1.37 0.02 2.78 0.04 C3.7 0.04 4.62 0.05 5.56 0.06 C6.27 0.07 6.98 0.09 7.71 0.1 C5.32 2.5 4 2.67 0.71 3.4 C-0.92 3.77 -0.92 3.77 -2.59 4.15 C-3.81 4.42 -5.03 4.69 -6.29 4.97 C-9.01 5.59 -11.74 6.22 -14.46 6.84 C-15.22 7.02 -15.97 7.19 -16.74 7.36 C-74.3 19.45 -74.3 19.45 -129.43 39.34 C-131.29 40.1 -131.29 40.1 -133.29 40.1 C-133.29 39.44 -133.29 38.78 -133.29 38.1 C-132.15 37.81 -131.02 37.52 -129.85 37.22 C-128.67 36.85 -127.5 36.48 -126.29 36.1 C-125.96 35.44 -125.63 34.78 -125.29 34.1 C-123.8 33.6 -123.8 33.6 -122.29 33.1 C-121.66 32.63 -121.04 32.15 -120.4 31.67 C-94.64 12.56 -37.23 0.7 -6.27 1.09 C-4.79 1.09 -4.79 1.09 -3.29 1.1 C-2.29 0.1 -2.29 0.1 0 0 Z " fill="#FBFCFE" transform="translate(1089.28515625,512.90234375)"/>
<path d="M0 0 C1 2 1 2 0.94 5.16 C0.85 11.99 2.06 18.75 3 25.5 C5.29 41.96 5.29 41.96 5 49 C1.44 50.19 -1.97 50.35 -5.69 50.56 C-6.74 50.63 -6.74 50.63 -7.81 50.69 C-9.54 50.8 -11.27 50.9 -13 51 C-14.33 47.29 -13.67 44.64 -12.74 40.86 C-12.45 39.65 -12.15 38.44 -11.85 37.2 C-11.53 35.9 -11.2 34.61 -10.88 33.31 C-10.55 32 -10.22 30.68 -9.9 29.37 C-8.1 22.14 -6.24 14.92 -4.19 7.75 C-3.99 7.06 -3.8 6.37 -3.6 5.66 C-3.13 4.09 -2.57 2.54 -2 1 C-1.34 0.67 -0.68 0.34 0 0 Z " fill="#251831" transform="translate(572,557)"/>
<path d="M0 0 C3 2 3 2 3.66 4.29 C3.79 5.25 3.93 6.21 4.06 7.2 C4.22 8.29 4.37 9.38 4.53 10.51 C4.69 11.7 4.84 12.89 5 14.12 C5.17 15.36 5.33 16.6 5.5 17.87 C12.53 71.67 12.53 71.67 8 88 C4.65 82.97 4.79 77.73 4.54 71.82 C4.46 70.19 4.38 68.55 4.3 66.91 C4.26 66.05 4.22 65.2 4.18 64.32 C3.61 51.85 2.99 39.38 1.94 26.94 C1.86 26 1.78 25.05 1.7 24.08 C1.39 20.6 1.03 17.19 0.45 13.75 C-0.03 10.82 -0.1 8.08 -0.06 5.12 C-0.05 4.16 -0.04 3.19 -0.04 2.2 C-0.02 1.47 -0.01 0.75 0 0 Z " fill="#FCFDFF" transform="translate(372,624)"/>
<path d="M0 0 C-0.76 0.3 -1.53 0.59 -2.32 0.9 C-5.88 2.28 -9.44 3.67 -13 5.06 C-13.64 5.31 -14.28 5.56 -14.93 5.82 C-23.79 9.28 -32.55 12.88 -41.19 16.86 C-44 18 -44 18 -47 18 C-46.6 15.21 -46.34 13.42 -45 11 C-42.36 9.29 -39.52 8.56 -36.5 7.75 C-35.68 7.51 -34.87 7.26 -34.03 7.01 C-32.42 6.53 -30.8 6.07 -29.18 5.61 C-26.52 4.86 -23.89 4.02 -21.25 3.19 C-17.85 2.19 -14.5 1.54 -11 1 C-9.8 0.63 -8.61 0.26 -7.38 -0.12 C-4.07 -0.98 -3.09 -0.96 0 0 Z " fill="#251731" transform="translate(1062,630)"/>
<path d="M0 0 C-0.92 0.37 -1.83 0.74 -2.78 1.11 C-6.23 2.5 -9.68 3.89 -13.12 5.28 C-14.61 5.88 -16.09 6.47 -17.57 7.07 C-25.89 10.4 -34.07 13.8 -42 18 C-42.66 18.33 -43.32 18.66 -44 19 C-43.68 17.55 -43.32 16.12 -42.94 14.69 C-42.74 13.89 -42.54 13.09 -42.34 12.26 C-38.86 6.39 -28.15 5.15 -22 3.38 C-20.95 3.06 -19.89 2.75 -18.8 2.43 C-4.87 -1.62 -4.87 -1.62 0 0 Z " fill="#281A33" transform="translate(870,631)"/>
<path d="M0 0 C-4.06 1.99 -8.12 3.96 -12.19 5.94 C-13.34 6.5 -14.49 7.07 -15.67 7.65 C-16.79 8.18 -17.9 8.72 -19.04 9.28 C-20.06 9.77 -21.09 10.27 -22.14 10.78 C-27.17 12.92 -31.56 13.11 -37 13 C-37.33 12.34 -37.66 11.68 -38 11 C-37.2 10.83 -37.2 10.83 -36.39 10.65 C-33.43 9.84 -30.66 8.71 -27.81 7.56 C-23.25 5.78 -18.93 4.44 -14.13 3.54 C-10.86 2.71 -7.95 1.23 -4.95 -0.29 C-3 -1 -3 -1 0 0 Z " fill="#30223B" transform="translate(1034,739)"/>
<path d="M0 0 C2.69 0.62 5.38 1.25 8.06 1.88 C8.81 2.05 9.57 2.22 10.34 2.4 C13.86 3.22 17.31 4.09 20.77 5.13 C23.62 5.9 25.71 6.19 28.62 6.06 C31.91 5.98 34.8 6.17 38 7 C32.17 10.88 23.08 8.54 16.37 7.36 C10.62 6.1 5.29 4.58 0 2 C0 1.34 0 0.68 0 0 Z " fill="#3E314A" transform="translate(135,549)"/>
<path d="M0 0 C-2.58 1.32 -5.16 2.63 -7.75 3.94 C-8.48 4.31 -9.21 4.68 -9.96 5.07 C-10.67 5.43 -11.38 5.78 -12.11 6.15 C-12.76 6.48 -13.41 6.81 -14.08 7.15 C-18.42 9.07 -22.28 9.09 -27 9 C-24.47 5.2 -22.64 4.9 -18.38 3.44 C-17.74 3.22 -17.11 3.01 -16.47 2.78 C-4.12 -1.37 -4.12 -1.37 0 0 Z " fill="#251731" transform="translate(836,743)"/>
</svg>
